<svg width="454" height="93" viewBox="0 0 454 93" fill="none" xmlns="http://www.w3.org/2000/svg">
<path d="M41 0L0 71.5H41L61.5 35.5L82.5 71.5H123L82.5 0H41Z" fill="#10367D"/>
<path d="M163.5 0L143.5 35.5H184.5L205.5 72H164L143.5 35.5L102.5 36L123 0H163.5Z" fill="#10367D"/>
<path d="M208 6.73765C208 3.06257 210.983 0 214.79 0C218.596 0 221.58 3.06257 221.58 6.73765C221.58 10.6169 218.596 13.5774 214.79 13.5774C210.983 13.5774 208 10.6169 208 6.73765ZM208.617 72.5829V21.5401H220.963V72.5829H208.617Z" fill="#10367D"/>
<path d="M250.263 20.6213C267.237 20.6213 273.925 33.2799 273.925 42.1614V72.5829H261.579V42.4676C261.579 35.2195 256.23 31.9528 250.263 31.9528C244.296 31.9528 238.946 35.2195 238.946 42.4676V72.5829H226.601V42.1614C226.601 33.2799 233.288 20.6213 250.263 20.6213Z" fill="#10367D"/>
<path d="M319.451 1.12294H331.797V47.1636C331.797 63.5993 319.966 73.3996 304.843 73.3996C289.308 73.3996 278.609 62.8847 278.609 47.1636C278.609 31.3403 289.308 20.7234 304.225 20.7234C311.632 20.7234 316.982 23.3776 319.451 26.5423V1.12294ZM290.954 47.0615C290.954 56.5554 296.612 62.1701 305.151 62.1701C313.793 62.1701 319.451 56.5554 319.451 47.0615C319.451 37.5675 313.793 31.9528 305.151 31.9528C296.612 31.9528 290.954 37.5675 290.954 47.0615Z" fill="#10367D"/>
<path d="M366.013 73.91C348.524 73.91 337.516 63.7014 337.516 47.3677V1.12294H350.376V48.2865C350.376 57.0659 356.24 62.1701 366.116 62.1701C376.301 62.1701 382.165 57.0659 382.165 48.2865V1.12294H395.025V47.3677C395.025 63.7014 384.017 73.91 366.527 73.91H366.013Z" fill="#10367D"/>
<path d="M413.158 93H400.812V46.9594C400.812 30.5236 412.643 20.7234 427.663 20.7234C443.301 20.7234 454 31.2382 454 46.9594C454 62.7827 443.301 73.3996 428.281 73.3996C420.873 73.3996 415.627 70.7453 413.158 67.5807V93ZM441.655 47.0615C441.655 37.5675 435.996 31.9528 427.355 31.9528C418.816 31.9528 413.158 37.5675 413.158 47.0615C413.158 56.5554 418.816 62.1701 427.355 62.1701C435.996 62.1701 441.655 56.5554 441.655 47.0615Z" fill="#10367D"/>
</svg>
