<svg width="956" height="223" viewBox="0 0 956 223" fill="none" xmlns="http://www.w3.org/2000/svg">
<path d="M4.65161 80.6845C4.72842 80.6845 4.79983 80.6885 4.87664 80.6926H4.89955C4.9831 80.6885 5.07068 80.6845 5.15423 80.6845H4.65161ZM104.33 85.6438L104.893 86.527C104.737 86.2155 104.547 85.9175 104.33 85.6438Z" fill="black"/>
<path d="M5.15423 80.6845C5.07068 80.6845 4.9831 80.6885 4.89955 80.6926H4.87664C4.79983 80.6885 4.72842 80.6845 4.65161 80.6845H5.15423Z" fill="black"/>
<path d="M12.1505 168.089H11.9295V168.085C12.0023 168.089 12.0777 168.089 12.1505 168.089Z" fill="black"/>
<path d="M5.15423 80.6845C5.07068 80.6845 4.9831 80.6885 4.89955 80.6926H4.87664C4.79983 80.6885 4.72842 80.6845 4.65161 80.6845H5.15423Z" fill="black"/>
<path d="M59.6139 162.932C59.6139 164.075 59.2406 165.134 58.61 165.991C57.6734 167.263 56.1615 168.089 54.4596 168.089H12.1505C12.0777 168.089 12.0023 168.089 11.9295 168.085C5.32132 167.968 0 162.57 0 155.927V85.842C0 85.7315 0.00404204 85.6249 0.0121271 85.5184V85.5022C0.167091 82.8136 2.18566 80.6845 4.65161 80.6845C4.72842 80.6845 4.79983 80.6885 4.87664 80.6926H4.89955C4.9831 80.6885 5.07068 80.6845 5.15423 80.6845C6.84401 80.6845 8.34378 81.5002 9.28435 82.7569L9.32208 82.8136L9.33017 82.8217L9.65357 83.3286L9.68725 83.3853L58.6895 159.98L58.7003 159.999L58.7043 160.003L58.7124 160.015L58.8687 160.254L58.8835 160.281L58.8876 160.285C59.3484 161.059 59.6139 161.965 59.6139 162.932Z" fill="black"/>
<path d="M12.1505 168.089H11.9295V168.085C12.0023 168.089 12.0777 168.089 12.1505 168.089Z" fill="black"/>
<path d="M104.33 85.6438L104.893 86.527C104.737 86.2155 104.547 85.9175 104.33 85.6438Z" fill="black"/>
<path d="M104.33 85.6438L104.893 86.527C104.737 86.2155 104.547 85.9175 104.33 85.6438Z" fill="black"/>
<path d="M104.33 85.6438L104.893 86.527C104.737 86.2155 104.547 85.9175 104.33 85.6438Z" fill="black"/>
<path d="M150.865 84.0446C150.865 87.4574 150.681 90.8243 150.328 94.1305C148.706 109.218 143.499 123.079 135.681 134.62C121.916 154.948 100.051 168.089 75.4309 168.089H74.6076C74.4675 168.089 74.326 168.085 74.1858 168.074H74.1549C70.6567 167.843 67.8903 164.925 67.8903 161.366V103.736C67.8903 101.357 68.7581 99.1735 70.1959 97.4934C71.9544 95.4331 74.5658 94.1305 77.4859 94.1305H100.226C103.116 94.1305 105.46 91.7884 105.46 88.8934C105.46 88.0439 105.258 87.2403 104.893 86.527C104.737 86.2155 104.547 85.9175 104.33 85.6438L54.9892 8.57705L54.9852 8.56896L54.3114 7.51318C54.3114 7.51318 54.3074 7.51048 54.3074 7.50644C53.9772 6.82011 53.7899 6.05154 53.7899 5.23576C53.7899 4.59259 53.9045 3.97503 54.1174 3.40736C54.8599 1.41984 56.7747 0.00269528 59.021 0.00269528H75.4309C88.8185 0.00269528 101.391 3.88738 112.293 10.7021C122.308 16.964 130.911 25.6975 137.431 36.1609C143.472 45.8544 147.728 57.0312 149.673 69.0978C150.458 73.9507 150.865 78.9437 150.865 84.0446Z" fill="black"/>
<path d="M44.4988 7.37295C44.9934 8.64852 45.2602 10.032 45.2602 11.4788V62.4854C45.2602 68.8241 40.1248 73.9614 33.7915 73.9614H11.466C7.11485 73.9614 3.327 71.5316 1.38255 67.9544C0.502623 66.3282 0.00134883 64.4648 0.00134883 62.484V11.4275C0.00134883 5.11576 5.1138 0 11.4215 0H33.7929C38.6803 0 42.8562 3.05813 44.5002 7.37026L44.4988 7.37295Z" fill="black"/>
<path d="M161.02 108.397C161.02 73.0895 184.863 49.475 220.4 49.475C255.936 49.475 279.55 73.0895 279.55 108.397C279.55 143.933 255.936 167.777 220.4 167.777C184.863 167.777 161.02 143.933 161.02 108.397ZM188.532 108.626C188.532 129.948 201.141 142.557 220.17 142.557C239.429 142.557 252.038 129.948 252.038 108.626C252.038 87.304 239.429 74.6944 220.17 74.6944C201.141 74.6944 188.532 87.304 188.532 108.626Z" fill="black"/>
<path d="M317.799 211.567H290.287V108.167C290.287 71.2554 316.652 49.2458 350.125 49.2458C384.974 49.2458 408.817 72.8602 408.817 108.167C408.817 143.704 384.974 167.547 351.501 167.547C334.994 167.547 323.301 161.586 317.799 154.479V211.567ZM381.305 108.397C381.305 87.0748 368.696 74.4651 349.437 74.4651C330.408 74.4651 317.799 87.0748 317.799 108.397C317.799 129.718 330.408 142.328 349.437 142.328C368.696 142.328 381.305 129.718 381.305 108.397Z" fill="black"/>
<path d="M477.194 49.475C512.731 49.475 536.574 73.3188 536.574 108.855V165.713H509.062V154.708C503.56 161.816 491.867 167.777 475.131 167.777C441.887 167.777 418.044 143.933 418.044 108.397C418.044 73.0895 441.887 49.475 477.194 49.475ZM509.062 108.626C509.062 87.304 496.453 74.6944 477.424 74.6944C458.165 74.6944 445.556 87.304 445.556 108.626C445.556 129.948 458.165 142.557 477.424 142.557C496.453 142.557 509.062 129.948 509.062 108.626Z" fill="black"/>
<path d="M580.354 165.713L529.686 5.22656H559.261L594.797 119.631L630.104 5.22656H659.68L649.592 37.0946L675.27 119.631L710.577 5.22656H740.152L689.485 165.713H660.826L634.919 83.6358L609.012 165.713H580.354Z" fill="black"/>
<path d="M786.615 49.475C822.151 49.475 845.995 73.3188 845.995 108.855V165.713H818.483V154.708C812.98 161.816 801.288 167.777 784.551 167.777C751.308 167.777 727.464 143.933 727.464 108.397C727.464 73.0895 751.308 49.475 786.615 49.475ZM818.483 108.626C818.483 87.304 805.873 74.6944 786.844 74.6944C767.586 74.6944 754.976 87.304 754.976 108.626C754.976 129.948 767.586 142.557 786.844 142.557C805.873 142.557 818.483 129.948 818.483 108.626Z" fill="black"/>
<path d="M882.122 162.733L842.688 51.0799H871.347L898.859 130.406L926.371 51.0799H955.029L914.449 165.713C905.049 192.537 898.4 222.342 859.883 222.342V197.123C875.244 197.123 887.625 178.094 882.122 162.733Z" fill="black"/>
</svg>
