<svg width="389" height="389" viewBox="0 0 389 389" fill="none" xmlns="http://www.w3.org/2000/svg">
<rect width="389" height="389" rx="75" fill="#FFC700"/>
<path d="M105.827 190.262C105.924 190.262 106.013 190.267 106.109 190.272H106.138C106.243 190.267 106.352 190.262 106.457 190.262H105.827ZM230.702 196.517L231.408 197.631C231.212 197.238 230.974 196.862 230.702 196.517Z" fill="black"/>
<path d="M106.457 190.262C106.352 190.262 106.243 190.267 106.138 190.272H106.109C106.013 190.267 105.924 190.262 105.827 190.262H106.457Z" fill="black"/>
<path d="M115.222 300.5H114.945V300.495C115.036 300.5 115.131 300.5 115.222 300.5Z" fill="black"/>
<path d="M106.457 190.262C106.352 190.262 106.243 190.267 106.138 190.272H106.109C106.013 190.267 105.924 190.262 105.827 190.262H106.457Z" fill="black"/>
<path d="M174.683 293.995C174.683 295.437 174.215 296.772 173.425 297.854C172.252 299.458 170.358 300.5 168.226 300.5H115.222C115.131 300.5 115.036 300.5 114.945 300.495C106.666 300.347 100 293.539 100 285.16V196.767C100 196.627 100.005 196.493 100.015 196.359V196.338C100.209 192.947 102.738 190.262 105.827 190.262C105.924 190.262 106.013 190.267 106.109 190.272H106.138C106.243 190.267 106.352 190.262 106.457 190.262C108.574 190.262 110.453 191.291 111.631 192.876L111.679 192.947L111.689 192.958L112.094 193.597L112.136 193.668L173.525 290.272L173.538 290.296L173.544 290.301L173.554 290.317L173.749 290.618L173.768 290.652L173.773 290.657C174.35 291.633 174.683 292.776 174.683 293.995Z" fill="black"/>
<path d="M115.222 300.5H114.945V300.495C115.036 300.5 115.131 300.5 115.222 300.5Z" fill="black"/>
<path d="M230.702 196.517L231.408 197.631C231.212 197.238 230.974 196.862 230.702 196.517Z" fill="black"/>
<path d="M230.702 196.517L231.408 197.631C231.212 197.238 230.974 196.862 230.702 196.517Z" fill="black"/>
<path d="M230.702 196.517L231.408 197.631C231.212 197.238 230.974 196.862 230.702 196.517Z" fill="black"/>
<path d="M289 194.5C289 198.804 288.77 203.051 288.328 207.221C286.296 226.249 279.773 243.731 269.978 258.287C252.734 283.926 225.342 300.5 194.498 300.5H193.467C193.291 300.5 193.114 300.495 192.938 300.481H192.9C188.517 300.189 185.052 296.509 185.052 292.021V219.336C185.052 216.334 186.139 213.581 187.94 211.462C190.143 208.863 193.415 207.221 197.073 207.221H225.562C229.181 207.221 232.118 204.267 232.118 200.615C232.118 199.544 231.865 198.53 231.408 197.631C231.212 197.238 230.974 196.862 230.702 196.517L168.889 99.3177L168.884 99.3075L168.04 97.9759C168.04 97.9759 168.035 97.9725 168.035 97.9674C167.622 97.1018 167.387 96.1324 167.387 95.1035C167.387 94.2923 167.53 93.5134 167.797 92.7975C168.727 90.2908 171.126 88.5034 173.94 88.5034H194.498C211.27 88.5034 227.02 93.4029 240.679 101.998C253.225 109.896 264.002 120.911 272.171 134.107C279.739 146.333 285.07 160.43 287.508 175.649C288.49 181.769 289 188.067 289 194.5Z" fill="black"/>
<path d="M155.747 97.799C156.367 99.4078 156.701 101.153 156.701 102.977V167.309C156.701 175.303 150.268 181.783 142.333 181.783H114.364C108.913 181.783 104.168 178.718 101.732 174.206C100.63 172.155 100.002 169.805 100.002 167.307V102.913C100.002 94.9522 106.406 88.5 114.309 88.5H142.335C148.458 88.5 153.689 92.357 155.749 97.7956L155.747 97.799Z" fill="black"/>
</svg>
